<svg xmlns="http://www.w3.org/2000/svg" xmlns:xlink="http://www.w3.org/1999/xlink" width="500" zoomAndPan="magnify" viewBox="0 0 375 374.999991" height="500" preserveAspectRatio="xMidYMid meet" version="1.0"><defs><clipPath id="b7cdffbc24"><path d="M 269 137.34375 L 375 137.34375 L 375 237.84375 L 269 237.84375 Z M 269 137.34375 " clip-rule="nonzero"/></clipPath><clipPath id="649831238c"><path d="M 277 211 L 305 211 L 305 237.84375 L 277 237.84375 Z M 277 211 " clip-rule="nonzero"/></clipPath></defs><path fill="#e6e6e6" d="M 285.667969 230.648438 C 323.507812 237.101562 365.097656 230.089844 374.242188 191.542969 C 363.066406 149.257812 307.832031 138.039062 280.085938 145.488281 C 273.828125 174.875 279.476562 202.792969 285.671875 230.648438 Z M 285.667969 230.648438 " fill-opacity="1" fill-rule="evenodd"/><g clip-path="url(#b7cdffbc24)"><path stroke-linecap="butt" transform="matrix(0.46875, 0, 0, 0.469626, -46.595618, 509.189031)" fill="none" stroke-linejoin="miter" d="M 708.829032 -593.111322 C 789.554037 -579.370339 878.279043 -594.300765 897.787377 -676.380679 C 873.945709 -766.420715 756.112368 -790.309397 696.920698 -774.447378 C 683.570697 -711.872673 695.620697 -652.425455 708.837365 -593.111322 Z M 708.829032 -593.111322 " stroke="#000000" stroke-width="3.137" stroke-opacity="1" stroke-miterlimit="4"/></g><path stroke-linecap="butt" transform="matrix(0.46875, 0, 0, 0.469626, -46.595618, 509.189031)" fill="none" stroke-linejoin="miter" d="M 716.970699 -754.268429 C 714.879032 -736.959116 724.995699 -635.889696 729.679033 -616.609068 C 763.879035 -609.4225 795.445704 -610.58699 825.795706 -615.635887 " stroke="#000000" stroke-width="3.137" stroke-opacity="1" stroke-miterlimit="4"/><path stroke-linecap="butt" transform="matrix(0.46875, 0, 0, 0.469626, -46.595618, 509.189031)" fill-opacity="1" fill="#e6e6e6" fill-rule="evenodd" stroke-linejoin="miter" d="M 774.062369 -676.006379 L 721.137366 -673.793848 C 709.454032 -674.134877 706.295698 -655.960514 691.529031 -656.226683 L 620.920693 -653.606581 C 614.770692 -664.985312 615.662359 -674.742075 617.662359 -684.823232 L 686.770697 -687.168848 C 701.370698 -688.857358 708.170698 -702.698155 719.204032 -702.407032 L 772.737369 -697.807296 " stroke="#000000" stroke-width="3.137" stroke-opacity="1" stroke-miterlimit="4"/><g clip-path="url(#649831238c)"><path stroke-linecap="butt" transform="matrix(0.46875, 0, 0, 0.469626, -46.595618, 509.189031)" fill="none" stroke-linejoin="miter" d="M 709.537365 -593.818333 L 730.3207 -616.683928 " stroke="#000000" stroke-width="3.137" stroke-opacity="1" stroke-miterlimit="4"/></g><path stroke-linecap="butt" transform="matrix(0.46875, 0, 0, 0.469626, -46.595618, 509.189031)" fill="none" stroke-linejoin="miter" d="M 693.804031 -752.496741 C 746.179034 -761.188827 818.454039 -759.67499 875.354043 -720.889153 " stroke="#000000" stroke-width="3.137" stroke-opacity="1" stroke-miterlimit="4"/><path stroke-linecap="butt" transform="matrix(0.46875, 0, 0, 0.469626, -46.595618, 509.189031)" fill="none" stroke-linejoin="miter" d="M 793.162371 -672.230104 L 881.64571 -668.653456 " stroke="#000000" stroke-width="3" stroke-opacity="1" stroke-miterlimit="4"/><path stroke-linecap="butt" transform="matrix(0.46875, 0, 0, 0.469626, -46.595618, 509.189031)" fill="none" stroke-linejoin="miter" d="M 789.204037 -696.900658 L 879.687376 -688.441469 " stroke="#000000" stroke-width="3" stroke-opacity="1" stroke-miterlimit="4"/><path stroke-linecap="butt" transform="matrix(0.46875, 0, 0, 0.469626, -46.595618, 509.189031)" fill-opacity="1" fill="#8f6b31" fill-rule="evenodd" stroke-linejoin="miter" d="M 624.78736 -653.930974 L 297.062338 -657.507622 L 294.862338 -688.990443 L 621.795693 -685.372206 Z M 624.78736 -653.930974 " stroke="#000000" stroke-width="3.137" stroke-opacity="1" stroke-miterlimit="4"/><path stroke-linecap="butt" transform="matrix(0.46875, 0, 0, 0.469626, -46.595618, 509.189031)" fill-opacity="1" fill="#e6e6e6" fill-rule="evenodd" stroke-linejoin="miter" d="M 307.387339 -658.148092 L 252.554002 -656.883788 C 238.770667 -633.610622 230.595667 -605.696132 191.362331 -603.475283 C 167.195663 -601.329294 145.937328 -604.664727 124.012327 -605.388374 L 101.087325 -718.776435 L 116.603993 -737.799212 L 182.66233 -740.9267 C 210.703999 -738.830618 235.654001 -716.339324 251.420668 -690.312971 L 303.379005 -687.892495 C 302.554005 -679.666205 302.879005 -670.541593 307.387339 -658.15641 Z M 150.512328 -626.399102 C 182.670664 -623.13853 235.587334 -627.72163 232.029 -671.431596 C 214.903999 -717.187738 179.13733 -718.926155 136.962327 -714.800534 Z M 150.512328 -626.399102 " stroke="#000000" stroke-width="3.137" stroke-opacity="1" stroke-miterlimit="4"/><path stroke-linecap="butt" transform="matrix(0.46875, 0, 0, 0.469626, -46.595618, 509.189031)" fill="none" stroke-linejoin="miter" d="M 124.212327 -605.662861 L 149.937328 -626.848262 " stroke="#000000" stroke-width="3.137" stroke-opacity="1" stroke-miterlimit="4"/><path stroke-linecap="butt" transform="matrix(0.46875, 0, 0, 0.469626, -46.595618, 509.189031)" fill="none" stroke-linejoin="miter" d="M 137.862328 -714.733991 L 102.412325 -713.98539 " stroke="#000000" stroke-width="3.137" stroke-opacity="1" stroke-miterlimit="4"/><path stroke-linecap="butt" transform="matrix(0.46875, 0, 0, 0.469626, -46.595618, 509.189031)" fill="none" stroke-linejoin="miter" d="M 174.48733 -603.076029 C 201.728998 -606.22847 230.654 -631.747438 232.804 -663.030632 " stroke="#000000" stroke-width="3.137" stroke-opacity="1" stroke-miterlimit="4"/></svg>